<?xml version="1.0" standalone="no"?>
<!DOCTYPE svg PUBLIC "-//W3C//DTD SVG 20010904//EN"
 "http://www.w3.org/TR/2001/REC-SVG-20010904/DTD/svg10.dtd">
<svg version="1.0" xmlns="http://www.w3.org/2000/svg"
 width="250.000000pt" height="282.000000pt" viewBox="0 0 250.000000 282.000000"
 preserveAspectRatio="xMidYMid meet">

<g transform="translate(0.000000,282.000000) scale(0.100000,-0.100000)"
fill="#000000" stroke="none">
<path d="M1175 2749 c-184 -31 -365 -170 -446 -344 -52 -111 -74 -237 -60
-340 31 -218 152 -394 334 -484 107 -52 182 -71 287 -71 342 0 621 275 624
615 1 105 -14 173 -60 273 -117 256 -393 399 -679 351z m235 -19 c217 -49 396
-212 462 -423 23 -75 28 -235 9 -317 -17 -72 -81 -191 -139 -259 -59 -69 -175
-145 -266 -174 -101 -31 -271 -31 -373 1 -89 28 -208 106 -267 175 -55 65
-109 164 -132 242 -26 89 -24 250 5 335 57 165 162 290 305 361 47 23 108 47
138 54 64 16 197 18 258 5z"/>
<path d="M1242 2665 c13 -19 29 -35 36 -35 11 0 11 2 0 14 -7 7 -20 23 -28 35
-25 36 -32 23 -8 -14z"/>
<path d="M1313 2665 c-1 -19 3 -35 8 -35 5 0 8 3 8 8 -4 23 2 52 11 52 5 0 8
-13 6 -30 -2 -16 0 -27 5 -25 4 3 7 18 6 33 -2 18 -9 28 -22 30 -16 2 -20 -4
-22 -33z"/>
<path d="M1157 2682 c-3 -4 -3 -19 0 -35 4 -20 11 -27 27 -26 17 1 17 2 4 6
-17 4 -22 18 -21 51 1 14 -4 16 -10 4z"/>
<path d="M1396 2668 c-8 -31 -7 -48 2 -48 4 0 8 16 9 35 2 40 -2 45 -11 13z"/>
<path d="M1070 2653 c0 -18 20 -66 25 -61 3 3 -1 20 -9 39 -9 19 -15 29 -16
22z"/>
<path d="M1100 2643 c0 -12 5 -25 11 -28 16 -11 17 -2 2 25 -12 24 -13 24 -13
3z"/>
<path d="M1481 2634 c-13 -29 -6 -47 9 -24 8 13 10 12 10 -2 0 -10 4 -18 10
-18 5 0 7 7 4 15 -4 8 -1 15 5 15 6 0 11 8 10 18 0 10 -3 12 -6 5 -2 -7 -12
-13 -20 -13 -13 0 -13 3 -3 15 7 8 8 15 3 15 -5 0 -15 -12 -22 -26z"/>
<path d="M975 2611 c-3 -6 3 -24 14 -41 10 -18 22 -27 25 -22 4 6 2 14 -4 17
-8 5 -7 12 2 23 10 12 10 14 1 8 -7 -4 -18 -4 -25 0 -8 5 -6 10 8 15 16 6 16
8 2 8 -9 1 -19 -3 -23 -8z"/>
<path d="M1550 2605 c-7 -8 -9 -22 -5 -32 7 -16 9 -15 14 6 4 13 15 28 26 32
19 7 19 8 -1 8 -12 1 -27 -6 -34 -14z"/>
<path d="M1156 2551 c-32 -11 -80 -35 -105 -53 -49 -35 -131 -117 -131 -132 0
-4 20 -30 44 -58 64 -70 90 -142 90 -248 1 -74 -3 -92 -28 -140 -15 -30 -37
-65 -48 -77 l-20 -21 51 -40 c28 -22 77 -53 108 -68 52 -25 69 -28 168 -29
128 0 180 14 276 77 52 33 69 39 98 35 20 -3 47 -1 61 3 21 7 22 8 5 9 -18 1
-16 4 10 27 29 24 29 24 3 8 -20 -11 -36 -14 -55 -8 -40 11 -47 11 -59 2 -13
-10 -44 0 -44 13 0 5 -3 8 -7 7 -33 -9 -78 41 -71 78 3 22 77 62 87 48 7 -11
30 -11 84 0 27 6 43 4 61 -7 29 -19 46 -6 46 35 0 28 0 28 -19 9 -16 -16 -33
-19 -110 -18 -50 1 -91 -2 -91 -7 0 -4 -13 -6 -29 -4 -17 2 -28 1 -25 -4 3 -4
0 -8 -5 -8 -6 0 -11 12 -11 26 0 39 51 82 96 82 20 0 41 5 47 11 18 18 72 12
103 -11 16 -12 23 -15 17 -8 -7 8 -13 35 -13 60 0 84 -43 198 -103 272 -35 44
-125 108 -187 133 -69 27 -219 30 -294 6z m269 -42 c28 -13 19 -14 -115 -17
-161 -3 -195 3 -140 24 46 17 214 13 255 -7z m109 -49 c7 -7 -56 -10 -178 -10
-105 0 -185 -4 -182 -9 3 -5 98 -12 211 -16 165 -6 205 -10 205 -21 0 -11 -25
-14 -122 -16 -68 -1 -104 -3 -81 -5 23 -2 47 -11 53 -19 9 -10 37 -14 106 -14
77 0 94 -3 94 -15 0 -13 -21 -15 -133 -15 l-133 0 -34 35 c-45 46 -87 55 -111
24 -10 -13 -19 -32 -19 -41 0 -16 -12 -18 -108 -18 -95 0 -111 2 -126 19 -28
31 -11 41 72 43 l77 2 -67 3 c-38 2 -68 7 -68 11 0 19 28 32 68 32 26 0 41 4
37 10 -3 6 -16 10 -28 10 -22 1 -22 1 -2 16 17 14 48 15 240 10 121 -4 224
-11 229 -16z m-175 -155 c66 -68 86 -78 96 -46 3 10 14 26 25 36 18 16 21 17
44 1 29 -19 59 -20 87 -5 27 14 60 -8 76 -50 13 -36 13 -36 -52 -46 -56 -8
-120 -28 -182 -57 -24 -11 -50 -17 -62 -13 -15 4 -21 1 -24 -17 -3 -18 -4 -18
-3 3 2 17 -5 31 -17 38 -10 7 -17 18 -14 25 3 6 -2 21 -9 31 -14 19 -15 19
-39 -7 -14 -15 -21 -30 -15 -33 6 -3 10 0 11 7 0 7 5 4 10 -7 9 -19 9 -18 5 3
-2 12 0 22 5 22 5 0 9 -29 9 -65 0 -64 0 -65 -27 -65 -16 0 -38 -3 -51 -7 -23
-6 -23 -4 -21 55 3 74 -13 102 -42 76 -17 -15 -21 -13 -73 32 l-55 49 22 17
c27 22 61 23 77 3 31 -37 90 -9 90 42 0 11 5 24 12 31 25 25 55 12 117 -53z
m-169 -201 c0 -48 -3 -65 -12 -62 -18 6 -23 109 -6 119 7 5 14 9 16 9 1 0 2
-30 2 -66z m289 -62 c-19 -21 -39 -47 -45 -58 -10 -16 -14 -17 -25 -6 -12 11
-6 21 34 58 60 54 81 58 36 6z m-129 -12 c-19 -16 -39 -29 -45 -29 -5 0 6 13
25 29 19 17 39 30 44 30 6 0 -5 -13 -24 -30z m54 -5 c-21 -19 -46 -34 -54 -34
-8 0 2 15 25 34 22 19 46 35 54 35 8 0 -3 -16 -25 -35z m-259 -4 c-12 -12 -65
-25 -65 -17 0 8 39 24 60 25 9 1 10 -2 5 -8z m115 -10 c0 -5 -10 -11 -22 -15
-19 -5 -21 -8 -8 -16 20 -13 33 -13 24 1 -4 7 -2 9 7 6 8 -3 38 -14 67 -23
113 -38 167 -142 109 -210 -19 -22 -34 -28 -82 -32 l-57 -5 46 43 c38 36 46
48 46 79 l0 36 -19 -31 c-25 -41 -68 -70 -138 -95 -46 -16 -63 -17 -90 -8 -18
6 -33 14 -33 18 0 4 26 16 58 25 59 19 162 79 162 95 0 19 -63 61 -101 67 -80
13 -89 47 -17 64 46 11 48 11 48 1z m-120 -29 c0 -5 -18 -23 -40 -41 -39 -31
-56 -24 -27 11 21 27 67 47 67 30z m40 -37 c0 -3 -23 -34 -51 -69 -49 -62 -83
-84 -95 -65 -8 14 107 137 129 138 9 1 17 -1 17 -4z m34 -52 c-9 -21 -18 -43
-21 -50 -5 -12 -41 -28 -48 -21 -8 8 60 108 72 108 10 0 10 -9 -3 -37z m278
-10 c35 -37 61 -103 40 -103 -5 0 -13 12 -20 28 l-12 27 6 -29 c3 -18 0 -32
-8 -37 -23 -15 -26 -10 -21 31 4 27 0 47 -11 65 -9 14 -13 25 -10 25 4 0 -1
10 -12 21 -19 22 -19 22 1 11 11 -6 32 -23 47 -39z m-209 31 c8 -9 -11 -44
-23 -44 -6 0 -10 8 -10 18 0 27 18 41 33 26z"/>
<path d="M1247 2112 c-5 -7 -13 -10 -18 -7 -5 4 -9 -5 -9 -19 0 -14 3 -26 8
-26 19 1 33 20 30 41 -2 17 -6 20 -11 11z"/>
<path d="M1272 2095 c0 -16 2 -22 5 -12 2 9 2 23 0 30 -3 6 -5 -1 -5 -18z"/>
<path d="M1349 1902 c10 -19 10 -28 -4 -48 -16 -25 -16 -25 4 -14 25 13 28 52
4 71 -15 13 -15 12 -4 -9z"/>
<path d="M1580 2559 c0 -5 5 -7 10 -4 6 3 10 8 10 11 0 2 -4 4 -10 4 -5 0 -10
-5 -10 -11z"/>
<path d="M950 2545 c7 -9 15 -13 17 -11 7 7 -7 26 -19 26 -6 0 -6 -6 2 -15z"/>
<path d="M900 2522 c0 -13 27 -35 39 -30 5 1 -2 11 -15 21 -13 10 -24 14 -24
9z"/>
<path d="M1674 2505 c-12 -13 -20 -26 -17 -28 5 -6 53 37 53 47 0 12 -15 4
-36 -19z"/>
<path d="M1706 2465 c-18 -14 -24 -25 -17 -29 6 -4 11 -3 11 1 0 5 12 16 26
24 15 9 23 19 18 22 -5 3 -22 -5 -38 -18z"/>
<path d="M820 2438 c0 -4 10 -8 23 -8 13 0 28 -5 35 -12 8 -8 12 -8 12 -1 0
12 -24 25 -52 28 -10 1 -18 -2 -18 -7z"/>
<path d="M1738 2428 c-15 -15 -16 -18 -3 -18 9 0 18 7 22 15 8 23 0 24 -19 3z"/>
<path d="M790 2383 c0 -5 14 -16 30 -25 17 -9 30 -13 30 -8 0 5 -13 16 -30 25
-16 9 -30 12 -30 8z"/>
<path d="M1757 2363 c3 -7 0 -13 -6 -13 -6 0 -11 -4 -11 -10 0 -18 17 -11 34
14 15 23 14 25 -3 23 -11 -1 -17 -7 -14 -14z"/>
<path d="M890 2313 c-30 -67 -40 -103 -26 -103 59 0 74 -168 17 -196 -17 -8
-17 -12 -5 -44 13 -31 14 -32 10 -7 -7 52 19 22 34 -41 18 -71 24 -80 45 -62
14 12 55 81 55 94 0 2 -22 21 -50 41 -75 55 -63 73 24 35 l46 -19 0 49 c0 76
-4 81 -53 64 -54 -19 -72 -3 -26 25 19 12 40 21 47 21 15 0 10 25 -14 72 -17
32 -73 98 -83 98 -4 0 -14 -12 -21 -27z m60 -28 c0 -24 -33 -86 -44 -82 -13 5
-10 24 10 72 14 34 34 40 34 10z"/>
<path d="M760 2320 c0 -4 8 -10 18 -13 9 -2 25 -8 35 -12 9 -4 17 -3 17 1 0 5
-16 14 -35 20 -19 6 -35 8 -35 4z"/>
<path d="M1793 2316 c-18 -6 -33 -13 -33 -17 0 -8 58 6 68 16 10 10 -3 10 -35
1z"/>
<path d="M1791 2272 c-6 -2 -11 -8 -11 -14 0 -10 39 -1 54 13 9 8 -20 9 -43 1z"/>
<path d="M743 2240 c2 -8 16 -16 33 -17 25 -1 26 0 4 4 -14 3 -29 10 -33 17
-6 7 -7 6 -4 -4z"/>
<path d="M1799 2213 c-13 -15 -12 -15 11 -3 34 17 36 20 18 20 -9 0 -22 -7
-29 -17z"/>
<path d="M1820 2170 l-25 -8 27 -1 c15 -1 30 4 33 9 7 11 0 11 -35 0z"/>
<path d="M862 2110 c1 -16 5 -30 10 -30 11 0 10 47 -1 55 -5 3 -9 -8 -9 -25z"/>
<path d="M826 2105 c-3 -8 -1 -15 4 -15 6 0 10 7 10 15 0 8 -2 15 -4 15 -2 0
-6 -7 -10 -15z"/>
<path d="M905 1750 c-3 -5 -1 -10 4 -10 6 0 11 5 11 10 0 6 -2 10 -4 10 -3 0
-8 -4 -11 -10z"/>
<path d="M957 1713 c-10 -9 -9 -23 1 -23 5 0 9 7 9 15 0 17 -1 18 -10 8z"/>
<path d="M1580 1680 c0 -5 5 -10 10 -10 6 0 10 5 10 10 0 6 -4 10 -10 10 -5 0
-10 -4 -10 -10z"/>
<path d="M1526 1651 c-3 -5 1 -11 9 -15 8 -3 15 -1 15 4 0 13 -18 22 -24 11z"/>
<path d="M1260 1593 c0 -10 4 -14 8 -8 4 6 11 13 16 18 5 4 2 7 -7 7 -10 0
-17 -8 -17 -17z"/>
<path d="M1356 1597 c3 -10 9 -15 12 -12 3 3 0 11 -7 18 -10 9 -11 8 -5 -6z"/>
<path d="M722 1188 c-17 -17 -15 -64 4 -82 17 -18 74 -22 74 -5 0 5 -5 7 -11
4 -18 -12 -56 4 -62 27 -3 11 -1 30 4 40 13 24 7 32 -9 16z"/>
<path d="M915 1145 c0 -37 4 -55 13 -55 8 0 12 18 12 55 0 37 -4 55 -12 55 -9
0 -13 -18 -13 -55z"/>
<path d="M1088 1145 c-2 -44 0 -55 12 -55 12 0 14 11 12 55 -2 30 -8 55 -12
55 -4 0 -10 -25 -12 -55z"/>
<path d="M1250 1196 c0 -2 7 -20 15 -39 8 -20 12 -43 9 -51 -4 -10 -1 -16 9
-16 11 0 15 9 15 29 -1 15 2 33 6 39 4 8 2 10 -8 6 -9 -3 -17 2 -21 15 -5 17
-25 31 -25 17z"/>
<path d="M1310 1189 c0 -5 5 -7 10 -4 6 3 10 8 10 11 0 2 -4 4 -10 4 -5 0 -10
-5 -10 -11z"/>
<path d="M1509 1173 c-22 -56 37 -105 85 -70 23 17 24 63 2 85 -16 16 -16 15
-6 -15 15 -41 -2 -76 -33 -71 -29 4 -46 51 -29 78 8 13 8 20 2 20 -6 0 -15
-12 -21 -27z"/>
<path d="M1740 1145 c0 -30 5 -55 10 -55 6 0 10 25 10 55 0 30 -4 55 -10 55
-5 0 -10 -25 -10 -55z"/>
<path d="M1785 1150 c-3 -5 -1 -10 4 -10 6 0 11 5 11 10 0 6 -2 10 -4 10 -3 0
-8 -4 -11 -10z"/>
<path d="M223 854 l27 -15 0 -139 c0 -152 -3 -170 -31 -170 -10 0 -19 -3 -19
-8 0 -6 43 -7 120 -2 l25 2 -25 7 -25 7 -3 156 c-3 170 -2 172 55 156 73 -19
78 -124 7 -154 l-33 -14 22 -24 c12 -12 33 -42 47 -66 40 -68 51 -72 210 -74
88 -1 144 2 149 9 12 15 20 65 10 65 -5 0 -9 -4 -9 -8 0 -5 -9 -18 -20 -30
-23 -25 -97 -31 -118 -10 -7 7 -12 38 -12 70 l0 58 37 0 c20 0 44 -7 53 -15
15 -13 16 -11 19 27 2 41 1 41 -17 25 -10 -10 -35 -17 -55 -17 l-37 0 0 65 0
65 50 0 c46 0 52 -3 70 -32 l20 -33 0 43 0 42 -99 0 c-93 0 -132 -10 -96 -24
13 -5 15 -27 13 -143 l-3 -138 -31 -3 c-26 -3 -37 4 -65 37 -19 21 -43 55 -53
75 l-19 36 26 24 c53 49 47 119 -13 148 -25 13 -58 18 -120 18 -81 -1 -84 -1
-57 -16z"/>
<path d="M790 831 c0 -6 4 -11 10 -11 15 0 49 -40 81 -97 l30 -52 -41 -61
c-22 -33 -53 -66 -68 -74 -16 -9 -21 -16 -12 -16 57 -5 83 -4 87 2 2 5 -1 8
-6 8 -6 0 -11 7 -11 16 0 19 51 104 62 104 6 0 74 -103 81 -124 5 -15 269 -11
298 5 34 17 48 39 49 72 0 28 -31 69 -61 79 -10 4 -7 11 14 27 32 26 36 68 9
101 -16 19 -31 23 -110 28 -59 3 -92 1 -92 -5 0 -6 9 -13 20 -16 19 -5 20 -14
20 -135 0 -144 -5 -156 -62 -150 -25 2 -40 13 -70 53 -20 27 -45 64 -54 81
-18 33 -18 33 17 84 18 28 46 56 62 63 41 18 33 27 -28 27 -30 0 -55 -4 -55
-10 0 -5 7 -10 15 -10 8 0 15 -5 15 -11 0 -16 -42 -89 -52 -89 -4 0 -25 26
-45 58 -32 47 -44 58 -71 60 -18 2 -32 -1 -32 -7z m470 -21 c23 -12 33 -55 19
-81 -6 -11 -24 -26 -42 -34 l-30 -13 30 -6 c95 -21 84 -153 -11 -144 l-31 3
-3 143 -3 142 26 0 c15 0 35 -4 45 -10z"/>
<path d="M1370 831 c0 -5 9 -11 20 -14 18 -5 20 -14 20 -94 0 -154 25 -203
106 -210 106 -11 144 39 144 190 0 106 7 120 62 115 l33 -3 3 -138 c3 -135 2
-138 -20 -147 -17 -7 -7 -9 42 -9 49 0 59 2 42 9 -22 9 -23 12 -20 147 l3 138
31 3 c25 2 37 -3 53 -24 11 -15 21 -37 21 -49 0 -30 -37 -75 -61 -75 -22 0
-25 -15 -5 -23 8 -3 31 -31 50 -62 34 -52 66 -75 104 -75 14 1 13 4 -5 19 -12
10 -40 44 -62 76 l-40 58 29 27 c50 46 39 118 -21 139 -39 13 -309 15 -309 2
0 -5 10 -11 23 -13 21 -3 22 -8 25 -93 4 -117 -9 -161 -52 -182 -41 -19 -81
-9 -110 30 -15 20 -21 47 -24 111 -5 96 2 136 23 136 8 0 15 5 15 10 0 6 -27
10 -60 10 -33 0 -60 -4 -60 -9z"/>
<path d="M2090 818 c-81 -42 -112 -143 -67 -222 42 -74 99 -96 211 -82 l56 7
0 58 c0 31 5 62 12 69 9 9 -2 12 -52 11 -36 -1 -53 -4 -38 -6 31 -5 42 -29 36
-84 -3 -30 -7 -35 -39 -43 -111 -27 -204 134 -136 235 53 80 147 90 194 20
l23 -34 0 36 c0 46 -19 57 -97 57 -41 0 -72 -7 -103 -22z"/>
<path d="M1156 421 c-4 -5 3 -7 14 -4 28 7 50 -14 50 -48 0 -37 47 -64 95 -55
39 8 80 48 71 71 -8 23 -25 9 -19 -15 8 -31 -29 -25 -60 10 -15 17 -31 30 -35
30 -23 0 -19 -17 10 -47 17 -18 27 -33 22 -33 -10 0 -22 11 -83 78 -21 22 -55
29 -65 13z"/>
<path d="M1127 393 c-8 -23 7 -63 23 -63 13 0 13 13 1 26 -5 5 -11 20 -13 34
-4 25 -4 25 -11 3z"/>
<path d="M858 393 c34 -2 90 -2 125 0 34 2 6 3 -63 3 -69 0 -97 -1 -62 -3z"/>
<path d="M1683 393 c119 -2 315 -2 435 0 119 1 21 2 -218 2 -239 0 -337 -1
-217 -2z"/>
<path d="M822 220 c0 -14 2 -19 5 -12 2 6 2 18 0 25 -3 6 -5 1 -5 -13z"/>
<path d="M955 193 c-4 -21 -10 -48 -15 -60 -7 -17 -6 -23 4 -23 7 0 13 6 13
13 1 6 4 33 8 60 7 55 -1 64 -10 10z"/>
<path d="M1315 184 c-3 -26 -9 -53 -12 -60 -3 -8 -1 -14 5 -14 9 0 27 109 18
117 -2 2 -7 -17 -11 -43z"/>
<path d="M1566 217 c3 -10 9 -15 12 -12 3 3 0 11 -7 18 -10 9 -11 8 -5 -6z"/>
<path d="M259 215 c-9 -8 12 -105 22 -105 8 0 4 34 -10 88 -4 13 -9 21 -12 17z"/>
<path d="M1484 194 c-19 -29 -10 -74 16 -82 12 -4 13 -2 3 9 -16 16 -17 53 -3
80 16 28 3 23 -16 -7z"/>
<path d="M2219 198 c0 -2 -2 -23 -4 -48 -3 -40 -3 -41 4 -12 11 41 14 44 35
36 20 -7 22 -69 4 -94 -7 -9 -3 -5 10 8 13 14 21 31 18 39 -3 8 -6 26 -6 40 0
15 -5 23 -12 20 -7 -2 -21 0 -30 5 -10 5 -18 7 -19 6z"/>
<path d="M329 188 c0 -2 -2 -20 -3 -42 -2 -30 -1 -34 7 -20 14 24 17 64 6 64
-5 0 -9 -1 -10 -2z"/>
<path d="M373 147 c-2 -42 -2 -42 12 -15 8 15 12 34 9 42 -11 28 -19 17 -21
-27z"/>
<path d="M423 148 c-2 -22 0 -38 4 -35 10 10 15 77 6 77 -4 0 -9 -19 -10 -42z"/>
<path d="M506 175 c4 -8 8 -15 10 -15 2 0 4 7 4 15 0 8 -4 15 -10 15 -5 0 -7
-7 -4 -15z"/>
<path d="M549 186 c-2 -4 -3 -76 -1 -76 2 0 8 13 13 30 6 17 17 30 25 30 8 0
14 4 14 9 0 6 -47 13 -51 7z"/>
<path d="M621 190 c-1 -3 -4 -23 -6 -45 -3 -34 -2 -36 6 -15 6 13 8 33 6 45
-2 11 -5 18 -6 15z"/>
<path d="M664 165 c-19 -29 -12 -55 13 -54 11 0 13 3 6 6 -22 8 -15 53 10 63
16 6 18 9 5 9 -10 1 -25 -10 -34 -24z"/>
<path d="M736 168 c-18 -26 -21 -58 -5 -58 6 0 8 7 5 16 -8 20 11 54 29 54 17
0 20 -25 5 -35 -5 -3 -7 -12 -3 -20 10 -27 19 -16 20 25 2 33 -1 40 -17 40
-10 0 -26 -10 -34 -22z"/>
<path d="M1037 172 c-18 -20 -23 -62 -7 -62 5 0 7 6 4 14 -7 19 13 56 31 56
12 0 12 -5 4 -27 -7 -18 -6 -30 1 -37 5 -5 10 -8 11 -6 7 59 5 80 -11 80 -9 0
-24 -8 -33 -18z"/>
<path d="M1120 190 c-4 -21 -6 -80 -3 -80 11 0 22 53 13 68 -5 9 -10 15 -10
12z"/>
<path d="M1163 149 l-1 -41 18 30 c29 48 42 50 34 5 -4 -21 -3 -35 1 -30 11
10 17 77 7 77 -4 0 -14 -6 -21 -12 -11 -10 -14 -10 -18 0 -9 24 -18 11 -20
-29z"/>
<path d="M1269 185 c-3 -6 -6 -26 -7 -45 l-1 -35 10 33 c10 32 8 66 -2 47z"/>
<path d="M1354 174 c3 -9 6 -30 6 -47 0 -18 4 -27 9 -22 11 13 2 85 -11 85 -6
0 -7 -7 -4 -16z"/>
<path d="M1401 174 c0 -11 3 -14 6 -6 3 7 2 16 -1 19 -3 4 -6 -2 -5 -13z"/>
<path d="M1601 177 c-14 -18 -18 -59 -6 -63 6 -2 10 10 10 28 0 23 5 34 18 36
21 4 24 -36 5 -58 -11 -12 -10 -12 5 -1 24 19 23 71 -2 71 -10 0 -24 -6 -30
-13z"/>
<path d="M1689 185 c-1 -5 -1 -13 0 -17 0 -4 -4 -19 -9 -33 -6 -16 -6 -25 0
-25 6 0 10 8 10 18 0 10 4 22 10 28 6 6 6 15 0 24 -5 8 -10 11 -11 5z"/>
<path d="M1728 153 c-6 -43 -2 -55 8 -27 4 10 14 28 23 38 9 11 10 16 4 12 -7
-4 -13 -2 -13 3 0 6 -4 11 -9 11 -5 0 -11 -17 -13 -37z"/>
<path d="M1780 173 c0 -10 -3 -28 -6 -40 -4 -13 -2 -23 3 -23 5 0 10 18 11 40
1 22 0 40 -3 40 -3 0 -5 -8 -5 -17z"/>
<path d="M1830 190 c-1 -3 -3 -23 -6 -45 l-4 -40 15 29 c10 19 12 33 5 45 -5
9 -10 14 -10 11z"/>
<path d="M1873 147 l-2 -42 13 30 c7 17 11 36 8 43 -9 24 -17 11 -19 -31z"/>
<path d="M1922 184 c3 -3 2 -21 -2 -40 -4 -19 -4 -34 1 -34 5 0 9 8 9 18 0 9
3 27 6 40 4 14 2 22 -7 22 -7 0 -10 -2 -7 -6z"/>
<path d="M1970 150 c0 -22 3 -40 8 -40 4 0 7 18 7 40 1 22 -3 40 -7 40 -4 0
-8 -18 -8 -40z"/>
<path d="M2020 166 c-12 -34 -13 -56 -1 -56 8 0 22 71 15 79 -2 2 -8 -8 -14
-23z"/>
<path d="M2069 188 c0 -2 -2 -21 -4 -43 l-4 -39 18 31 c30 48 43 51 36 9 -4
-21 -3 -36 2 -36 5 0 10 18 11 40 2 45 -2 48 -31 23 -19 -17 -20 -17 -14 0 4
9 2 17 -3 17 -6 0 -10 -1 -11 -2z"/>
<path d="M2169 185 c-3 -6 -6 -26 -7 -45 l-1 -35 10 33 c10 32 8 66 -2 47z"/>
<path d="M470 161 c-14 -27 -13 -51 3 -51 7 0 12 14 12 35 0 41 -1 41 -15 16z"/>
<path d="M830 167 c0 -9 5 -19 10 -22 15 -10 12 -23 -7 -28 -14 -4 -13 -5 3
-6 30 -1 35 20 13 48 -14 17 -19 19 -19 8z"/>
<path d="M225 160 c-3 -5 -1 -10 4 -10 6 0 11 5 11 10 0 6 -2 10 -4 10 -3 0
-8 -4 -11 -10z"/>
<path d="M207 133 c-10 -9 -9 -23 1 -23 5 0 9 7 9 15 0 17 -1 18 -10 8z"/>
<path d="M1339 73 c-13 -16 -12 -17 4 -4 16 13 21 21 13 21 -2 0 -10 -8 -17
-17z"/>
</g>
</svg>
